<svg xmlns="http://www.w3.org/2000/svg" xmlns:xlink="http://www.w3.org/1999/xlink" width="500" zoomAndPan="magnify" viewBox="0 0 375 374.999991" height="500" preserveAspectRatio="xMidYMid meet" version="1.0"><defs><g/><clipPath id="f1d9cd30a0"><rect x="0" width="332" y="0" height="290"/></clipPath></defs><rect x="-37.5" width="450" fill="#ffffff" y="-37.499999" height="449.999989" fill-opacity="1"/><rect x="-37.5" width="450" fill="#73c732" y="-37.499999" height="449.999989" fill-opacity="1"/><g transform="matrix(1, 0, 0, 1, 26, 42)"><g clip-path="url(#f1d9cd30a0)"><g fill="#ffffff" fill-opacity="1"><g transform="translate(1.007988, 230.9239)"><g><path d="M 55.296875 -135.21875 L 5.03125 -135.21875 L 5.03125 -163.109375 L 144.515625 -163.109375 L 144.515625 -135.21875 L 94.5 -135.21875 L 94.5 0 L 55.296875 0 Z M 55.296875 -135.21875 "/></g></g></g><g fill="#ffffff" fill-opacity="1"><g transform="translate(150.531831, 230.9239)"><g><path d="M 17.59375 -163.109375 L 56.796875 -163.109375 L 56.796875 0 L 17.59375 0 Z M 57.8125 -86.453125 L 118.875 -163.109375 L 164.875 -163.109375 L 103.046875 -87.203125 L 171.65625 0 L 123.90625 0 Z M 57.8125 -86.453125 "/></g></g></g></g></g></svg>